# xmcd
#
# Track frame offsets:
#	150
#	16362
#	31395
#	46600
#	70160
#	87747
#	110617
#	128592
#	148357
#	160430
#	177565
#	207535
#	220022
#	240337
#	255010
#	268177
#	283497
#	305857
#
# Disc length: 4280 seconds
# Revision: 0
# Processed by: cddbd v1.5.2PL0 Copyright (c) Steve Scherf et al.
# Submitted via: dBpowerAMP V12.0
#
DISCID=1510b612
DTITLE=Cyril May and Jack McDonald - Off the Beaten Track
DYEAR=2001
DGENRE=Country
TTITLE0=If I Had a Dime
TTITLE1=Let's Have a Bloody Go at Life
TTITLE2=Macho Mountain Mama
TTITLE3=PHIL
TTITLE4=My Favorite Chair
TTITLE5=Californ-i-ay
TTITLE6=Gold Fever
TTITLE7=Dad
TTITLE8=Mendocino Madness Millionaire
TTITLE9=The Housewife Song
TTITLE10=The Angel of Death Valley
TTITLE11=The Fat Song
TTITLE12=Holocaust Harry's Hotpipe
TTITLE13=Chugalug Bug
TTITLE14=Gas Pump Fever
TTITLE15=Sock Gobbler
TTITLE16=The Veterans Song
TTITLE17=Party'n Kangaroos
EXTD=
EXTT0=
EXTT1=
EXTT2=
EXTT3=
EXTT4=
EXTT5=
EXTT6=
EXTT7=
EXTT8=
EXTT9=
EXTT10=
EXTT11=
EXTT12=
EXTT13=
EXTT14=
EXTT15=
EXTT16=
EXTT17=
PLAYORDER=
